<svg xmlns="http://www.w3.org/2000/svg" width="92" height="24.001" viewBox="0 0 92 24.001"><g transform="translate(0)"><path d="M6.48,24H0V16.628l6.48-6.48H0V6.48L6.48,0h9.765A15.886,15.886,0,0,1,20.69.542a7.9,7.9,0,0,1,2.969,1.537,5.8,5.8,0,0,1,1.66,2.4,9.1,9.1,0,0,1,.516,3.136,7.546,7.546,0,0,1-.428,2.655,6.169,6.169,0,0,1-1.153,1.948,6.9,6.9,0,0,1-1.686,1.372,11.485,11.485,0,0,1-2.026.925L28.4,24l-7.579,0-7.266-8.839H6.48V24Zm0-18.988v5.135h8.873a10.759,10.759,0,0,0,1.9-.139,3.205,3.205,0,0,0,1.214-.446,1.639,1.639,0,0,0,.638-.795,3.409,3.409,0,0,0,.183-1.188A3.406,3.406,0,0,0,19.1,6.394a1.639,1.639,0,0,0-.638-.795,3.221,3.221,0,0,0-1.214-.446,10.834,10.834,0,0,0-1.9-.14ZM74.613,24h-6.48V15.773l6.48-6.481h-6.48V6.48L74.613,0H91.068V5.118H74.613V9.291H85.935v5.118H74.613V24ZM50.075,24H43.6V5.223H32.218l1.755-1.755.049-.049L37.441,0H60.276V5.223h-10.2V24Z" transform="translate(0)" fill="#171745"/></g></svg>