<?xml version="1.0" standalone="no"?><svg xmlns="http://www.w3.org/2000/svg" viewBox="0 0 1440 320"><path fill="#eeeffc" fill-opacity="1" d="M0,64L18.5,58.7C36.9,53,74,43,111,42.7C147.7,43,185,53,222,101.3C258.5,149,295,235,332,277.3C369.2,320,406,320,443,272C480,224,517,128,554,128C590.8,128,628,224,665,261.3C701.5,299,738,277,775,261.3C812.3,245,849,235,886,224C923.1,213,960,203,997,186.7C1033.8,171,1071,149,1108,133.3C1144.6,117,1182,107,1218,101.3C1255.4,96,1292,96,1329,90.7C1366.2,85,1403,75,1422,69.3L1440,64L1440,0L1421.5,0C1403.1,0,1366,0,1329,0C1292.3,0,1255,0,1218,0C1181.5,0,1145,0,1108,0C1070.8,0,1034,0,997,0C960,0,923,0,886,0C849.2,0,812,0,775,0C738.5,0,702,0,665,0C627.7,0,591,0,554,0C516.9,0,480,0,443,0C406.2,0,369,0,332,0C295.4,0,258,0,222,0C184.6,0,148,0,111,0C73.8,0,37,0,18,0L0,0Z"></path></svg>