<?xml version="1.0" standalone="no"?>
<!DOCTYPE svg PUBLIC "-//W3C//DTD SVG 20010904//EN"
 "http://www.w3.org/TR/2001/REC-SVG-20010904/DTD/svg10.dtd">
<svg version="1.0" xmlns="http://www.w3.org/2000/svg"
 width="512.000000pt" height="512.000000pt" viewBox="0 0 512.000000 512.000000"
 preserveAspectRatio="xMidYMid meet">
<metadata>
Created by potrace 1.11, written by Peter Selinger 2001-2013
</metadata>
<g transform="translate(0.000000,512.000000) scale(0.100000,-0.100000)"
fill="#000000" stroke="none">
<path d="M2379 5116 c-2 -2 -38 -7 -79 -10 -79 -6 -83 -7 -220 -32 -138 -25
-411 -104 -434 -125 -6 -5 -16 -9 -24 -9 -22 0 -250 -110 -356 -173 -569 -334
-991 -880 -1172 -1519 -18 -65 -35 -130 -38 -145 -28 -156 -37 -210 -45 -283
-9 -89 -7 -489 4 -550 3 -19 13 -78 21 -130 83 -513 334 -997 715 -1379 415
-415 952 -672 1544 -738 92 -10 440 -10 535 0 183 20 357 59 548 123 751 250
1356 855 1611 1613 85 251 123 479 126 766 3 247 -7 357 -51 570 -125 591
-477 1141 -971 1513 -346 261 -761 430 -1213 493 -73 10 -493 23 -501 15z"/>
</g>
</svg>
