<svg version="1.1" xmlns="http://www.w3.org/2000/svg"
	 viewBox="0 0 512 512" xml:space="preserve" stroke="white" fill="white">
<g>
	<g>
		<path class="st0" d="M458.7,448h-40.9l-28.4-85.3H416c5.9,0,10.7-4.8,10.7-10.7c0-29.7-17.5-55.1-42.7-67.2v-71.5
			c0-35.3-28.7-64-64-64H186.7L173.8,37.4C171.4,16.1,153.3,0,131.8,0c-12.1,0-23.7,5.2-31.7,14.3c-8,9.1-11.8,21.2-10.3,33.2
			l12.7,101.8H53.3c-17.6,0-32,14.4-32,32s14.4,32,32,32h57.3l14,112c2.7,21.3,20.9,37.4,42.3,37.4h46.4V448h-10.7
			c-29.4,0-53.3,23.9-53.3,53.3c0,5.9,4.8,10.7,10.7,10.7h170.7c5.9,0,10.7-4.8,10.7-10.7c0-29.4-23.9-53.3-53.3-53.3h-10.7v-85.3
			h44.4l42.6,127.5c4.4,13.1,16.6,21.9,30.4,21.9h64c17.6,0,32-14.4,32-32S476.3,448,458.7,448z M116.1,28.4c4-4.6,9.6-7.1,15.7-7.1
			c10.6,0,19.6,8,20.8,18.6l12.6,109.4h-41.2L111,44.9C110.3,38.8,112.1,33,116.1,28.4z M53.3,192c-5.9,0-10.7-4.8-10.7-10.7
			c0-5.9,4.8-10.7,10.7-10.7H320c23.5,0,42.7,19.1,42.7,42.7v65.1c-3.5-0.5-7-1.1-10.7-1.1h-10.7v-64c0-11.8-9.6-21.3-21.3-21.3
			H53.3z M320,213.3v64H211c-5.4,0-10-4.1-10.6-9.4l-6.3-54.6L320,213.3L320,213.3z M288,469.3c13.9,0,25.8,8.9,30.2,21.3H172.5
			c4.4-12.4,16.3-21.3,30.2-21.3H288z M234.7,448v-85.3H256V448H234.7z M166.9,341.3c-10.7,0-19.8-8-21.2-18.7l-13.7-109.3h40.6
			l6.6,57c1.9,16.2,15.5,28.3,31.8,28.3h141c25.8,0,47.3,18.4,52.3,42.7L166.9,341.3L166.9,341.3z M458.7,490.7h-64
			c-4.6,0-8.7-2.9-10.1-7.3l-40.3-120.7h22.6l33.1,99.4c1.4,4.4,5.5,7.3,10.1,7.3h48.6c5.9,0,10.7,4.8,10.7,10.7
			C469.3,485.9,464.6,490.7,458.7,490.7z"/>
	</g>
</g>
</svg>
