<svg version="1.1" xmlns="http://www.w3.org/2000/svg"
	 viewBox="0 0 387.5 387.5" xml:space="preserve" stroke="white" fill="white">
<g>
	<g>
		<path class="st0" d="M246,296.4c0-0.6,0-1.3,0-1.9V93c0-0.6,0-1.3,0-1.9c13.5-0.3,24.3-11.3,24.3-24.8h0
			c0-13.7-11.1-24.8-24.8-24.9h-2.9C237.8,14.3,212.1-3.9,185,0.7c-20.8,3.6-37.1,19.9-40.6,40.6h-2.9
			c-13.7,0.4-24.6,11.8-24.2,25.5c0.4,13,10.7,23.5,23.6,24.2c0,0.6,0,1.3,0,1.9v201.4c0,0.6,0,1.3,0,1.9
			c-13.7,0.7-24.3,12.4-23.6,26.1c0.6,13,11.2,23.3,24.2,23.6h2.9c4.7,27.1,30.4,45.3,57.5,40.6c20.8-3.6,37.1-19.9,40.6-40.6h2.9
			c13.7-0.4,24.6-11.8,24.2-25.5C269.2,307.5,258.9,297,246,296.4z M170.2,26.6L170.2,26.6c12.9-12.8,33.7-12.8,46.6,0
			c4.1,4.1,7,9.2,8.5,14.7h-63.6C163.1,35.8,166.1,30.7,170.2,26.6z M133.4,66.1c0-4.4,3.6-8,8-8h104c4.4,0.1,7.9,3.8,7.8,8.2
			c0,2-0.8,3.9-2.2,5.3l0,0.2c-1.5,1.5-3.5,2.3-5.6,2.3h-104C137,74.1,133.4,70.5,133.4,66.1z M157.8,237v-29.9l71.3,71.3v16
			c0.1,0.6,0.1,1.3,0,1.9h-11.9L157.8,237z M193,296.4h-35.1c-0.1-0.6-0.1-1.3,0-1.9v-33.5L193,296.4z M229,150.5v30l-71.3-71.4v-16
			c-0.1-0.6-0.1-1.3,0-1.9h11.8L229,150.5z M193.6,91.1h35.3c0.1,0.6,0.1,1.3,0,1.9v33.5L193.6,91.1z M229,204.4v50l-71.3-71.3v-50
			L229,204.4z M216.7,360.9c-12.8,12.8-33.7,12.8-46.5,0c-4.1-4.1-7-9.2-8.5-14.7h63.4C223.7,351.7,220.7,356.8,216.7,360.9
			L216.7,360.9z M250.8,326.9c-1.5,1.4-3.4,2.2-5.4,2.2h-104c-4.4,0-8-3.6-8-8s3.6-8,8-8h104c2.1,0.1,4.1,1,5.6,2.5l0.1,0
			C254.1,318.8,254,323.9,250.8,326.9z"/>
	</g>
</g>
</svg>
